<svg width="41" height="40" viewBox="0 0 41 40" fill="none" xmlns="http://www.w3.org/2000/svg">
<g clip-path="url(#clip0)">
<path d="M40.0668 37.1556L28.6919 25.7807C30.8952 23.0591 32.2219 19.6008 32.2219 15.8342C32.2219 7.10424 25.1186 0.000946045 16.3887 0.000946045C7.65875 0.000946045 0.555542 7.10416 0.555542 15.8341C0.555542 24.564 7.65883 31.6673 16.3887 31.6673C20.1554 31.6673 23.6137 30.3407 26.3353 28.1373L37.7102 39.5122C38.0352 39.8372 38.4618 40.0006 38.8885 40.0006C39.3152 40.0006 39.7419 39.8372 40.0669 39.5122C40.7185 38.8606 40.7185 37.8072 40.0668 37.1556ZM16.3887 28.334C9.49545 28.334 3.88887 22.7274 3.88887 15.8341C3.88887 8.94078 9.49545 3.3342 16.3887 3.3342C23.282 3.3342 28.8886 8.94078 28.8886 15.8341C28.8886 22.7274 23.282 28.334 16.3887 28.334Z" fill="white"/>
</g>
<defs>
<clipPath id="clip0">
<rect width="40" height="40" fill="white" transform="translate(0.555542)"/>
</clipPath>
</defs>
</svg>
